<svg width="101" height="101" viewBox="0 0 101 101" fill="none" xmlns="http://www.w3.org/2000/svg">
<path d="M61.1632 50.4997C-3.01807 53.7188 74.3059 92.1471 51.3046 92.1471C28.3034 92.1471 9.65723 73.501 9.65723 50.4997C9.65723 27.4985 28.3034 8.85229 51.3046 8.85229C74.3059 8.85229 -3.42046 38.428 61.1632 50.4997Z" fill="url(#paint0_linear_2086_16377)"/>
<path fill-rule="evenodd" clip-rule="evenodd" d="M63.4134 50.3492C56.1263 42.6701 51.3771 35.9414 52.5495 34.7783C53.721 33.6162 60.4016 38.4105 68.0144 45.7491C75.6564 38.4415 82.3558 33.6743 83.5225 34.841C84.6903 36.0088 79.9144 42.718 72.5968 50.3677C79.8838 58.0467 84.6328 64.7752 83.4604 65.9382C82.2889 67.1003 75.6086 62.3061 67.9959 54.9678C60.3536 62.2759 53.6538 67.0434 52.487 65.8766C51.3192 64.7089 56.0954 57.9992 63.4134 50.3492Z" fill="url(#paint1_linear_2086_16377)"/>
<path d="M101 50.5C101 78.3904 78.3904 101 50.5 101C22.6096 101 0 78.3904 0 50.5C0 22.6096 22.6096 0 50.5 0C78.3904 0 101 22.6096 101 50.5ZM7.05101 50.5C7.05101 74.4962 26.5038 93.949 50.5 93.949C74.4962 93.949 93.949 74.4962 93.949 50.5C93.949 26.5038 74.4962 7.05101 50.5 7.05101C26.5038 7.05101 7.05101 26.5038 7.05101 50.5Z" fill="url(#paint2_linear_2086_16377)"/>
<defs>
<linearGradient id="paint0_linear_2086_16377" x1="35.4102" y1="8.85229" x2="35.4102" y2="92.1471" gradientUnits="userSpaceOnUse">
<stop stop-color="#1375E8"/>
<stop offset="1" stop-color="#03C3FF"/>
</linearGradient>
<linearGradient id="paint1_linear_2086_16377" x1="68.0048" y1="34.605" x2="68.0048" y2="66.1115" gradientUnits="userSpaceOnUse">
<stop stop-color="#BD68FF"/>
<stop offset="1" stop-color="#0BB6FF"/>
</linearGradient>
<linearGradient id="paint2_linear_2086_16377" x1="50.5" y1="0" x2="50.5" y2="101" gradientUnits="userSpaceOnUse">
<stop stop-color="#3D1396"/>
<stop offset="1" stop-color="#69ADFE"/>
</linearGradient>
</defs>
</svg>
